HIERARCHY
ROOT mixamorig:Hips
{
	OFFSET -0.000008 104.274872 1.554316
	CHANNELS 6 Xposition Yposition Zposition Xrotation Yrotation Zrotation
	JOINT mixamorig:Spine
	{
		OFFSET -0.000005 10.181587 0.131521
		CHANNELS 6 Xposition Yposition Zposition Xrotation Yrotation Zrotation
		JOINT mixamorig:Spine1
		{
			OFFSET -0.000000 9.893967 -1.470711
			CHANNELS 3 Xrotation Yrotation Zrotation
			JOINT mixamorig:Spine2
			{
				OFFSET -0.000000 9.220772 -1.370643
				CHANNELS 3 Xrotation Yrotation Zrotation
				JOINT mixamorig:Neck
				{
					OFFSET 0.000001 16.740387 -2.049035
					CHANNELS 6 Xposition Yposition Zposition Xrotation Yrotation Zrotation
					JOINT mixamorig:Head
					{
						OFFSET 0.000000 9.617889 1.685008
						CHANNELS 6 Xposition Yposition Zposition Xrotation Yrotation Zrotation
						JOINT mixamorig:HeadTop_End
						{
							OFFSET 0.000002 22.037369 7.501095
							CHANNELS 6 Xposition Yposition Zposition Xrotation Yrotation Zrotation
							End Site
							{
								OFFSET 0.000002 23.106552 -2.828258
							}
						}
					}
				}
				JOINT mixamorig:RightShoulder
				{
					OFFSET -4.569969 11.014908 -2.160884
					CHANNELS 6 Xposition Yposition Zposition Xrotation Yrotation Zrotation
					JOINT mixamorig:RightArm
					{
						OFFSET -10.592846 -0.524811 -2.232097
						CHANNELS 3 Xrotation Yrotation Zrotation
						JOINT mixamorig:RightForeArm
						{
							OFFSET -27.841518 0.000000 -0.000004
							CHANNELS 3 Xrotation Yrotation Zrotation
							JOINT mixamorig:RightHand
							{
								OFFSET -28.328838 0.000000 0.000019
								CHANNELS 3 Xrotation Yrotation Zrotation
								JOINT mixamorig:RightHandThumb1
								{
									OFFSET -2.464806 -1.573990 2.681852
									CHANNELS 6 Xposition Yposition Zposition Xrotation Yrotation Zrotation
									JOINT mixamorig:RightHandThumb2
									{
										OFFSET -3.215187 -1.872772 1.924281
										CHANNELS 3 Xrotation Yrotation Zrotation
										JOINT mixamorig:RightHandThumb3
										{
											OFFSET -2.654839 -1.527985 1.512611
											CHANNELS 3 Xrotation Yrotation Zrotation
											JOINT mixamorig:RightHandThumb4
											{
												OFFSET -2.018822 -1.152008 1.108052
												CHANNELS 3 Xrotation Yrotation Zrotation
												End Site
												{
													OFFSET -1.888100 -1.145340 1.324313
												}
											}
										}
									}
								}
								JOINT mixamorig:RightHandIndex1
								{
									OFFSET -9.108284 -0.517868 2.259834
									CHANNELS 6 Xposition Yposition Zposition Xrotation Yrotation Zrotation
									JOINT mixamorig:RightHandIndex2
									{
										OFFSET -3.699997 0.000015 0.001215
										CHANNELS 3 Xrotation Yrotation Zrotation
										JOINT mixamorig:RightHandIndex3
										{
											OFFSET -2.850006 0.000000 -0.000521
											CHANNELS 3 Xrotation Yrotation Zrotation
											JOINT mixamorig:RightHandIndex4
											{
												OFFSET -2.772186 0.000000 -0.000020
												CHANNELS 3 Xrotation Yrotation Zrotation
												End Site
												{
													OFFSET -2.772186 0.000000 -0.000502
												}
											}
										}
									}
								}
								JOINT mixamorig:RightHandMiddle1
								{
									OFFSET -9.532501 -0.000046 -0.000025
									CHANNELS 6 Xposition Yposition Zposition Xrotation Yrotation Zrotation
									JOINT mixamorig:RightHandMiddle2
									{
										OFFSET -3.699997 0.000015 0.003713
										CHANNELS 3 Xrotation Yrotation Zrotation
										JOINT mixamorig:RightHandMiddle3
										{
											OFFSET -2.949997 0.000000 -0.002054
											CHANNELS 3 Xrotation Yrotation Zrotation
											JOINT mixamorig:RightHandMiddle4
											{
												OFFSET -2.946632 0.000015 -0.000155
												CHANNELS 3 Xrotation Yrotation Zrotation
												End Site
												{
													OFFSET -2.946625 0.000000 -0.001135
												}
											}
										}
									}
								}
								JOINT mixamorig:RightHandRing1
								{
									OFFSET -9.103592 -0.043076 -1.865134
									CHANNELS 6 Xposition Yposition Zposition Xrotation Yrotation Zrotation
									JOINT mixamorig:RightHandRing2
									{
										OFFSET -3.379272 0.000000 -0.001054
										CHANNELS 3 Xrotation Yrotation Zrotation
										JOINT mixamorig:RightHandRing3
										{
											OFFSET -2.889687 0.000000 0.000379
											CHANNELS 3 Xrotation Yrotation Zrotation
											JOINT mixamorig:RightHandRing4
											{
												OFFSET -2.638817 0.000000 0.000942
												CHANNELS 3 Xrotation Yrotation Zrotation
												End Site
												{
													OFFSET -2.638802 0.000000 0.005160
												}
											}
										}
									}
								}
								JOINT mixamorig:RightHandPinky1
								{
									OFFSET -8.076675 -0.486710 -3.806279
									CHANNELS 6 Xposition Yposition Zposition Xrotation Yrotation Zrotation
									JOINT mixamorig:RightHandPinky2
									{
										OFFSET -3.599998 -0.000031 -0.003747
										CHANNELS 3 Xrotation Yrotation Zrotation
										JOINT mixamorig:RightHandPinky3
										{
											OFFSET -2.099991 -0.000015 -0.005740
											CHANNELS 3 Xrotation Yrotation Zrotation
											JOINT mixamorig:RightHandPinky4
											{
												OFFSET -2.115776 -0.000015 -0.003680
												CHANNELS 3 Xrotation Yrotation Zrotation
												End Site
												{
													OFFSET -2.115784 -0.000015 -0.003507
												}
											}
										}
									}
								}
							}
						}
					}
				}
				JOINT mixamorig:LeftShoulder
				{
					OFFSET 4.570447 11.014709 -2.160855
					CHANNELS 6 Xposition Yposition Zposition Xrotation Yrotation Zrotation
					JOINT mixamorig:LeftArm
					{
						OFFSET 10.592369 -0.524597 -2.232120
						CHANNELS 3 Xrotation Yrotation Zrotation
						JOINT mixamorig:LeftForeArm
						{
							OFFSET 27.841522 -0.000031 0.000023
							CHANNELS 3 Xrotation Yrotation Zrotation
							JOINT mixamorig:LeftHand
							{
								OFFSET 28.328835 -0.000031 0.000018
								CHANNELS 3 Xrotation Yrotation Zrotation
								JOINT mixamorig:LeftHandThumb1
								{
									OFFSET 2.466141 -1.576187 2.681734
									CHANNELS 6 Xposition Yposition Zposition Xrotation Yrotation Zrotation
									JOINT mixamorig:LeftHandThumb2
									{
										OFFSET 3.217804 -1.872055 1.916487
										CHANNELS 3 Xrotation Yrotation Zrotation
										JOINT mixamorig:LeftHandThumb3
										{
											OFFSET 2.656013 -1.528809 1.514505
											CHANNELS 3 Xrotation Yrotation Zrotation
											JOINT mixamorig:LeftHandThumb4
											{
												OFFSET 2.020889 -1.154068 1.115134
												CHANNELS 3 Xrotation Yrotation Zrotation
												End Site
												{
													OFFSET 1.908852 -1.150833 1.300489
												}
											}
										}
									}
								}
								JOINT mixamorig:LeftHandIndex1
								{
									OFFSET 9.109306 -0.518036 2.259871
									CHANNELS 6 Xposition Yposition Zposition Xrotation Yrotation Zrotation
									JOINT mixamorig:LeftHandIndex2
									{
										OFFSET 3.699997 -0.000015 -0.000323
										CHANNELS 3 Xrotation Yrotation Zrotation
										JOINT mixamorig:LeftHandIndex3
										{
											OFFSET 2.850006 -0.000015 0.000350
											CHANNELS 3 Xrotation Yrotation Zrotation
											JOINT mixamorig:LeftHandIndex4
											{
												OFFSET 2.774864 0.000000 -0.000027
												CHANNELS 3 Xrotation Yrotation Zrotation
												End Site
												{
													OFFSET 2.774872 -0.000015 -0.000099
												}
											}
										}
									}
								}
								JOINT mixamorig:LeftHandMiddle1
								{
									OFFSET 9.533401 0.000031 0.000044
									CHANNELS 6 Xposition Yposition Zposition Xrotation Yrotation Zrotation
									JOINT mixamorig:LeftHandMiddle2
									{
										OFFSET 3.699997 -0.000015 -0.000231
										CHANNELS 3 Xrotation Yrotation Zrotation
										JOINT mixamorig:LeftHandMiddle3
										{
											OFFSET 2.950005 0.000000 -0.000060
											CHANNELS 3 Xrotation Yrotation Zrotation
											JOINT mixamorig:LeftHandMiddle4
											{
												OFFSET 2.952858 0.000000 0.000063
												CHANNELS 3 Xrotation Yrotation Zrotation
												End Site
												{
													OFFSET 2.952866 0.000000 0.000228
												}
											}
										}
									}
								}
								JOINT mixamorig:LeftHandRing1
								{
									OFFSET 9.104530 -0.043030 -1.865074
									CHANNELS 6 Xposition Yposition Zposition Xrotation Yrotation Zrotation
									JOINT mixamorig:LeftHandRing2
									{
										OFFSET 3.150002 -0.000015 0.000042
										CHANNELS 3 Xrotation Yrotation Zrotation
										JOINT mixamorig:LeftHandRing3
										{
											OFFSET 2.949997 0.000000 0.000037
											CHANNELS 3 Xrotation Yrotation Zrotation
											JOINT mixamorig:LeftHandRing4
											{
												OFFSET 2.644318 -0.000015 0.000059
												CHANNELS 3 Xrotation Yrotation Zrotation
												End Site
												{
													OFFSET 2.644318 0.000000 0.000121
												}
											}
										}
									}
								}
								JOINT mixamorig:LeftHandPinky1
								{
									OFFSET 8.077782 -0.486877 -3.806256
									CHANNELS 6 Xposition Yposition Zposition Xrotation Yrotation Zrotation
									JOINT mixamorig:LeftHandPinky2
									{
										OFFSET 3.599968 0.000031 0.014726
										CHANNELS 3 Xrotation Yrotation Zrotation
										JOINT mixamorig:LeftHandPinky3
										{
											OFFSET 2.099991 0.000015 0.007705
											CHANNELS 3 Xrotation Yrotation Zrotation
											JOINT mixamorig:LeftHandPinky4
											{
												OFFSET 2.125511 0.000015 0.007514
												CHANNELS 3 Xrotation Yrotation Zrotation
												End Site
												{
													OFFSET 2.125526 0.000015 0.006258
												}
											}
										}
									}
								}
							}
						}
					}
				}
			}
		}
	}
	JOINT mixamorig:RightUpLeg
	{
		OFFSET -8.207787 -6.751671 -1.599560
		CHANNELS 6 Xposition Yposition Zposition Xrotation Yrotation Zrotation
		JOINT mixamorig:RightLeg
		{
			OFFSET -0.000001 -44.370113 0.345939
			CHANNELS 3 Xrotation Yrotation Zrotation
			JOINT mixamorig:RightFoot
			{
				OFFSET 0.000001 -44.423676 -3.043536
				CHANNELS 3 Xrotation Yrotation Zrotation
				JOINT mixamorig:RightToeBase
				{
					OFFSET -0.000003 -8.728670 10.710561
					CHANNELS 3 Xrotation Yrotation Zrotation
					JOINT mixamorig:RightToe_End
					{
						OFFSET -0.000003 -0.000677 9.278120
						CHANNELS 3 Xrotation Yrotation Zrotation
						End Site
						{
							OFFSET -0.000003 -0.000677 9.278120
						}
					}
				}
			}
		}
	}
	JOINT mixamorig:LeftUpLeg
	{
		OFFSET 8.207791 -6.751701 -1.599555
		CHANNELS 6 Xposition Yposition Zposition Xrotation Yrotation Zrotation
		JOINT mixamorig:LeftLeg
		{
			OFFSET -0.000002 -44.370033 0.346958
			CHANNELS 3 Xrotation Yrotation Zrotation
			JOINT mixamorig:LeftFoot
			{
				OFFSET 0.000000 -44.423653 -3.044392
				CHANNELS 3 Xrotation Yrotation Zrotation
				JOINT mixamorig:LeftToeBase
				{
					OFFSET -0.000003 -8.728668 10.710560
					CHANNELS 3 Xrotation Yrotation Zrotation
					JOINT mixamorig:LeftToe_End
					{
						OFFSET -0.000003 -0.000677 9.278137
						CHANNELS 3 Xrotation Yrotation Zrotation
						End Site
						{
							OFFSET -0.000003 -0.000677 9.278137
						}
					}
				}
			}
		}
	}
}
MOTION
Frames: 4
Frame Time: 0.033333
4.939717 102.801453 -0.963734 -7.265522 -12.280637 -6.753220 -0.000005 10.181592 0.131519 5.572913 -1.677413 0.923206 1.456118 0.150816 5.313243 1.446933 0.644124 5.222521 -0.000001 16.740381 -2.049035 6.907556 -0.757645 -2.054354 0.000002 9.617893 1.685008 12.444841 -3.285487 -2.331765 0.000003 22.037323 7.501100 0.000004 0.000002 -0.000000 -4.569975 11.014926 -2.160883 6.134058 11.631877 12.611599 70.823843 65.249446 -31.178629 -0.000074 86.629202 0.000089 -37.761015 4.147760 43.214422 -2.464801 -1.573970 2.681859 9.193204 -4.364028 -6.875255 -2.378533 -23.063022 3.579896 3.105116 -13.813870 0.209288 -0.000001 -0.000006 0.000002 -9.108280 -0.517868 2.259839 3.175630 -8.874309 59.657106 4.030413 -6.265532 72.333315 2.236454 -4.822101 65.414286 0.000001 -0.000003 -0.000008 -9.532516 -0.000050 -0.000016 4.967916 -11.271529 68.039223 5.131572 -6.551675 85.320415 3.538923 -5.438361 67.579729 -0.000000 0.000002 0.000005 -9.103582 -0.043085 -1.865127 7.490656 -11.658266 79.347585 6.473878 -5.460910 92.219186 2.485628 -4.348701 69.363590 0.000000 -0.000001 -0.000006 -8.076683 -0.486719 -3.806275 10.185565 -18.269173 89.780924 5.845801 -6.140166 97.524180 1.434235 -5.535628 73.649862 0.000001 -0.000003 -0.000001 4.570445 11.014703 -2.160854 -0.239999 -22.197099 -13.470031 12.627753 -45.520339 -36.118614 0.000302 -101.634103 0.000422 -3.597261 -4.125408 -23.552722 2.466133 -1.576203 2.681726 8.719570 -0.274169 28.354718 0.982802 32.044802 -4.004077 1.818125 8.673912 -0.462085 0.000001 -0.000007 0.000003 9.109307 -0.518027 2.259871 0.338885 4.666288 -7.844127 0.389489 2.835124 -20.566371 0.034528 0.809248 -10.169806 -0.000002 -0.000001 -0.000005 9.533421 0.000027 0.000031 0.911576 8.765800 -15.831578 0.918407 3.993718 -33.400431 0.170805 1.491256 -12.264397 -0.000001 0.000008 -0.000001 9.104546 -0.043023 -1.865078 2.556129 11.673650 -26.909135 1.711110 3.886618 -40.215464 0.545088 1.835040 -19.344149 -0.000000 0.000001 0.000001 8.077791 -0.486897 -3.806268 5.722751 16.216356 -36.981953 1.528853 3.990380 -45.650181 0.557556 2.832850 -20.526317 -0.000002 0.000007 -0.000002 -8.207787 -6.751660 -1.599560 3.262201 -0.470243 6.308059 9.003398 2.322094 5.044156 -5.168782 -0.704154 -6.396206 -3.623624 -0.000001 -0.000000 -0.000000 0.000000 -0.000000 8.207789 -6.751687 -1.599556 -10.496566 14.481289 13.580493 19.374808 8.500954 3.055920 -1.966107 16.809369 -7.307807 -2.848301 0.000002 -0.000000 0.000000 -0.000001 0.000000 
4.254034 102.822128 -0.926783 -7.093544 -12.338852 -6.718673 -0.000006 10.181595 0.131520 5.502069 -1.631545 0.767923 1.447845 0.159049 5.267636 1.439228 0.650880 5.176811 0.000004 16.740402 -2.049032 6.856241 -0.743680 -2.003524 -0.000001 9.617873 1.685010 12.472670 -3.164818 -2.248187 0.000002 22.037354 7.501101 -0.000001 -0.000001 0.000000 -4.569970 11.014911 -2.160882 6.134046 11.631871 12.611601 70.823850 65.249460 -31.178670 -0.000008 86.629195 0.000085 -37.761029 4.147764 43.214412 -2.464814 -1.573972 2.681849 9.193209 -4.364043 -6.875250 -2.378512 -23.063011 3.579909 3.105115 -13.813861 0.209283 -0.000001 0.000000 0.000004 -9.108284 -0.517869 2.259830 3.175625 -8.874320 59.657113 4.030424 -6.265504 72.333315 2.236446 -4.822095 65.414272 0.000002 -0.000003 -0.000000 -9.532519 -0.000066 -0.000029 4.967910 -11.271537 68.039237 5.131586 -6.551667 85.320408 3.538894 -5.438360 67.579736 0.000000 0.000000 0.000001 -9.103602 -0.043075 -1.865140 7.490661 -11.658270 79.347571 6.473899 -5.460922 92.219206 2.485654 -4.348691 69.363583 0.000000 -0.000002 -0.000000 -8.076691 -0.486719 -3.806279 10.185556 -18.269187 89.780938 5.845790 -6.140192 97.524200 1.434266 -5.535626 73.649841 0.000000 -0.000002 -0.000005 4.570447 11.014733 -2.160855 -0.240001 -22.197094 -13.470028 12.627758 -45.520369 -36.118577 0.000357 -101.634110 0.000429 -3.597263 -4.125412 -23.552709 2.466141 -1.576210 2.681742 8.719577 -0.274176 28.354709 0.982788 32.044806 -4.004075 1.818125 8.673930 -0.462071 -0.000001 -0.000007 -0.000003 9.109319 -0.518042 2.259880 0.338892 4.666298 -7.844122 0.389486 2.835137 -20.566371 0.034548 0.809256 -10.169800 0.000002 0.000001 0.000001 9.533413 0.000010 0.000047 0.911580 8.765791 -15.831583 0.918378 3.993738 -33.400431 0.170826 1.491256 -12.264421 0.000000 -0.000001 0.000001 9.104542 -0.043053 -1.865069 2.556109 11.673654 -26.909149 1.711107 3.886636 -40.215457 0.545085 1.835043 -19.344148 -0.000001 -0.000000 -0.000000 8.077794 -0.486893 -3.806252 5.722750 16.216379 -36.981940 1.528853 3.990370 -45.650181 0.557551 2.832859 -20.526347 0.000002 -0.000000 0.000005 -8.207788 -6.751660 -1.599559 3.622645 -0.281946 6.673964 8.105221 2.300984 5.199077 -4.823459 -0.813924 -6.893525 -3.767294 -0.000002 0.000001 0.000000 0.000000 -0.000000 8.207790 -6.751689 -1.599554 -10.188486 14.461006 13.867108 18.256180 8.643856 3.179976 -0.089320 16.531745 -8.070811 -2.753823 0.000002 -0.000006 0.000000 0.000000 -0.000000 
3.617896 102.818977 -0.891732 -6.906128 -12.312393 -6.635974 -0.000006 10.181592 0.131522 5.441609 -1.595205 0.629162 1.443291 0.165570 5.231662 1.435123 0.656294 5.140759 0.000001 16.740385 -2.049033 6.795973 -0.725932 -1.988667 0.000000 9.617844 1.685012 12.486495 -3.085775 -2.109722 0.000002 22.037338 7.501096 -0.000003 -0.000001 0.000000 -4.569972 11.014940 -2.160882 6.134055 11.631880 12.611606 70.823816 65.249466 -31.178652 -0.000110 86.629222 0.000073 -37.761012 4.147755 43.214395 -2.464808 -1.573973 2.681849 9.193219 -4.364036 -6.875262 -2.378533 -23.063017 3.579892 3.105115 -13.813867 0.209291 -0.000001 -0.000003 -0.000005 -9.108295 -0.517861 2.259826 3.175623 -8.874306 59.657106 4.030420 -6.265513 72.333302 2.236458 -4.822099 65.414286 0.000003 -0.000008 -0.000003 -9.532530 -0.000044 -0.000023 4.967904 -11.271526 68.039237 5.131588 -6.551672 85.320387 3.538890 -5.438378 67.579736 -0.000000 0.000002 0.000010 -9.103615 -0.043083 -1.865132 7.490676 -11.658259 79.347585 6.473895 -5.460922 92.219172 2.485658 -4.348700 69.363576 -0.000000 -0.000007 0.000001 -8.076695 -0.486720 -3.806286 10.185572 -18.269165 89.780924 5.845807 -6.140171 97.524200 1.434253 -5.535618 73.649841 0.000001 -0.000001 -0.000001 4.570446 11.014703 -2.160854 -0.239994 -22.197095 -13.470024 12.627733 -45.520373 -36.118594 0.000267 -101.634075 0.000385 -3.597261 -4.125430 -23.552731 2.466133 -1.576210 2.681722 8.719579 -0.274176 28.354719 0.982785 32.044806 -4.004067 1.818133 8.673929 -0.462072 -0.000003 -0.000003 -0.000001 9.109318 -0.518033 2.259860 0.338883 4.666311 -7.844109 0.389499 2.835114 -20.566381 0.034517 0.809247 -10.169799 -0.000001 -0.000001 -0.000002 9.533421 0.000022 0.000031 0.911582 8.765792 -15.831579 0.918381 3.993741 -33.400431 0.170819 1.491265 -12.264429 0.000000 0.000003 -0.000002 9.104546 -0.043037 -1.865087 2.556115 11.673654 -26.909151 1.711098 3.886618 -40.215464 0.545093 1.835039 -19.344127 0.000001 -0.000004 0.000002 8.077803 -0.486894 -3.806272 5.722744 16.216377 -36.981957 1.528865 3.990385 -45.650167 0.557544 2.832859 -20.526337 0.000003 -0.000006 0.000002 -8.207788 -6.751666 -1.599558 3.832251 -0.140423 6.971511 7.482710 2.242888 5.350734 -4.617302 -0.926485 -7.360318 -3.861394 0.000001 0.000001 -0.000000 -0.000001 -0.000000 8.207789 -6.751699 -1.599555 -10.127519 14.367781 14.099603 17.761637 9.174302 3.304069 0.351291 15.976420 -8.518508 -2.527699 0.000004 0.000003 0.000000 -0.000003 -0.000000 
3.046699 102.834694 -0.863799 -6.722789 -12.238233 -6.542141 -0.000005 10.181586 0.131518 5.406823 -1.568227 0.534206 1.448859 0.170509 5.205004 1.441031 0.660356 5.114061 -0.000001 16.740398 -2.049034 6.721215 -0.713669 -2.004991 0.000002 9.617889 1.685006 12.451546 -3.076590 -1.976833 0.000003 22.037369 7.501086 0.000000 0.000000 0.000000 -4.569971 11.014913 -2.160882 6.134064 11.631874 12.611569 70.823871 65.249453 -31.178656 -0.000057 86.629188 0.000188 -37.760991 4.147768 43.214395 -2.464803 -1.573976 2.681859 9.193196 -4.364029 -6.875243 -2.378515 -23.063017 3.579892 3.105102 -13.813865 0.209296 -0.000002 -0.000004 0.000000 -9.108293 -0.517861 2.259844 3.175632 -8.874300 59.657092 4.030405 -6.265502 72.333308 2.236479 -4.822085 65.414286 0.000001 -0.000001 0.000001 -9.532516 -0.000054 -0.000019 4.967871 -11.271518 68.039244 5.131574 -6.551673 85.320394 3.538895 -5.438364 67.579702 0.000000 0.000002 0.000009 -9.103624 -0.043075 -1.865129 7.490649 -11.658258 79.347585 6.473880 -5.460913 92.219192 2.485652 -4.348698 69.363583 0.000000 -0.000006 0.000001 -8.076696 -0.486730 -3.806282 10.185541 -18.269183 89.780931 5.845800 -6.140162 97.524180 1.434259 -5.535625 73.649848 0.000002 -0.000001 -0.000000 4.570446 11.014704 -2.160853 -0.239995 -22.197089 -13.470018 12.627750 -45.520335 -36.118580 0.000296 -101.634103 0.000385 -3.597255 -4.125418 -23.552726 2.466126 -1.576215 2.681739 8.719564 -0.274182 28.354724 0.982783 32.044809 -4.004077 1.818131 8.673923 -0.462078 -0.000001 0.000000 0.000001 9.109314 -0.518048 2.259871 0.338876 4.666305 -7.844109 0.389498 2.835134 -20.566371 0.034530 0.809233 -10.169822 0.000002 0.000006 -0.000001 9.533413 0.000021 0.000043 0.911573 8.765796 -15.831569 0.918388 3.993724 -33.400441 0.170821 1.491262 -12.264416 0.000000 0.000001 -0.000002 9.104539 -0.043067 -1.865070 2.556119 11.673647 -26.909134 1.711101 3.886630 -40.215484 0.545088 1.835028 -19.344136 -0.000002 0.000003 0.000002 8.077806 -0.486903 -3.806260 5.722733 16.216379 -36.981957 1.528854 3.990387 -45.650170 0.557558 2.832856 -20.526332 -0.000000 -0.000001 -0.000004 -8.207788 -6.751663 -1.599560 4.258912 -0.004718 7.218205 6.545804 2.135862 5.503329 -4.307350 -1.010342 -7.780971 -3.921816 -0.000002 -0.000001 0.000000 -0.000001 -0.000000 8.207791 -6.751686 -1.599557 -10.016933 14.300154 14.263861 17.149931 9.737425 3.434459 0.833307 15.339534 -8.897705 -2.194229 -0.000003 -0.000001 0.000000 -0.000001 -0.000000 
